# xmcd
#
# Track frame offsets: 
#        150
#        17745
#        33730
#        52447
#        73930
#        81040
#        95725
#        112620
#        127257
#        140830
#        155987
#
# Disc length: 2337 seconds
#
# Revision: 3
# Processed by: cddbd v1.5.1PL2 Copyright (c) Steve Scherf et al.
# Submitted via: ExactAudioCopy v0.95b4
#
DISCID=ab091f0b
DTITLE=Harper, Ben and the Blind Boys of Alabama - There Will Be a Light
DYEAR=2004
DGENRE=Gospel Blues
TTITLE0=Take My Hand
TTITLE1=Wicked Man
TTITLE2=Where Could I Go
TTITLE3=Church House Steps
TTITLE4=11th Commandment
TTITLE5=Well, Well, Well
TTITLE6=Pictures of Jesus
TTITLE7=Satisfied Mind
TTITLE8=Mother Pray
TTITLE9=There Will Be a Light
TTITLE10=Church on Time
EXTD=YEAR: 2004
EXTT0=
EXTT1=
EXTT2=
EXTT3=
EXTT4=
EXTT5=
EXTT6=
EXTT7=
EXTT8=
EXTT9=
EXTT10=
PLAYORDER=
